<mxfile host="Electron" agent="Mozilla/5.0 (Windows NT 10.0; Win64; x64) AppleWebKit/537.36 (KHTML, like Gecko) draw.io/24.7.8 Chrome/128.0.6613.36 Electron/32.0.1 Safari/537.36" version="24.7.8">
  <diagram id="C5RBs43oDa-KdzZeNtuy" name="Page-1">
    <mxGraphModel dx="1034" dy="519" grid="1" gridSize="10" guides="1" tooltips="1" connect="1" arrows="1" fold="1" page="1" pageScale="1" pageWidth="827" pageHeight="1169" math="0" shadow="0">
      <root>
        <mxCell id="WIyWlLk6GJQsqaUBKTNV-0" />
        <mxCell id="WIyWlLk6GJQsqaUBKTNV-1" parent="WIyWlLk6GJQsqaUBKTNV-0" />
        <mxCell id="zkfFHV4jXpPFQw0GAbJ--0" value="Person" style="swimlane;fontStyle=2;align=center;verticalAlign=top;childLayout=stackLayout;horizontal=1;startSize=26;horizontalStack=0;resizeParent=1;resizeLast=0;collapsible=1;marginBottom=0;rounded=0;shadow=0;strokeWidth=1;" parent="WIyWlLk6GJQsqaUBKTNV-1" vertex="1">
          <mxGeometry x="220" y="120" width="160" height="138" as="geometry">
            <mxRectangle x="230" y="140" width="160" height="26" as="alternateBounds" />
          </mxGeometry>
        </mxCell>
        <mxCell id="zkfFHV4jXpPFQw0GAbJ--1" value="Name" style="text;align=left;verticalAlign=top;spacingLeft=4;spacingRight=4;overflow=hidden;rotatable=0;points=[[0,0.5],[1,0.5]];portConstraint=eastwest;" parent="zkfFHV4jXpPFQw0GAbJ--0" vertex="1">
          <mxGeometry y="26" width="160" height="26" as="geometry" />
        </mxCell>
        <mxCell id="zkfFHV4jXpPFQw0GAbJ--2" value="Phone Number" style="text;align=left;verticalAlign=top;spacingLeft=4;spacingRight=4;overflow=hidden;rotatable=0;points=[[0,0.5],[1,0.5]];portConstraint=eastwest;rounded=0;shadow=0;html=0;" parent="zkfFHV4jXpPFQw0GAbJ--0" vertex="1">
          <mxGeometry y="52" width="160" height="26" as="geometry" />
        </mxCell>
        <mxCell id="zkfFHV4jXpPFQw0GAbJ--3" value="Email Address" style="text;align=left;verticalAlign=top;spacingLeft=4;spacingRight=4;overflow=hidden;rotatable=0;points=[[0,0.5],[1,0.5]];portConstraint=eastwest;rounded=0;shadow=0;html=0;" parent="zkfFHV4jXpPFQw0GAbJ--0" vertex="1">
          <mxGeometry y="78" width="160" height="26" as="geometry" />
        </mxCell>
        <mxCell id="zkfFHV4jXpPFQw0GAbJ--4" value="" style="line;html=1;strokeWidth=1;align=left;verticalAlign=middle;spacingTop=-1;spacingLeft=3;spacingRight=3;rotatable=0;labelPosition=right;points=[];portConstraint=eastwest;" parent="zkfFHV4jXpPFQw0GAbJ--0" vertex="1">
          <mxGeometry y="104" width="160" height="8" as="geometry" />
        </mxCell>
        <mxCell id="zkfFHV4jXpPFQw0GAbJ--5" value="Purchase Parking Pass" style="text;align=left;verticalAlign=top;spacingLeft=4;spacingRight=4;overflow=hidden;rotatable=0;points=[[0,0.5],[1,0.5]];portConstraint=eastwest;" parent="zkfFHV4jXpPFQw0GAbJ--0" vertex="1">
          <mxGeometry y="112" width="160" height="26" as="geometry" />
        </mxCell>
        <mxCell id="zkfFHV4jXpPFQw0GAbJ--6" value="Student" style="swimlane;fontStyle=0;align=center;verticalAlign=top;childLayout=stackLayout;horizontal=1;startSize=26;horizontalStack=0;resizeParent=1;resizeLast=0;collapsible=1;marginBottom=0;rounded=0;shadow=0;strokeWidth=1;" parent="WIyWlLk6GJQsqaUBKTNV-1" vertex="1">
          <mxGeometry x="120" y="360" width="160" height="138" as="geometry">
            <mxRectangle x="130" y="380" width="160" height="26" as="alternateBounds" />
          </mxGeometry>
        </mxCell>
        <mxCell id="zkfFHV4jXpPFQw0GAbJ--7" value="Student Number" style="text;align=left;verticalAlign=top;spacingLeft=4;spacingRight=4;overflow=hidden;rotatable=0;points=[[0,0.5],[1,0.5]];portConstraint=eastwest;" parent="zkfFHV4jXpPFQw0GAbJ--6" vertex="1">
          <mxGeometry y="26" width="160" height="26" as="geometry" />
        </mxCell>
        <mxCell id="zkfFHV4jXpPFQw0GAbJ--8" value="Average Mark" style="text;align=left;verticalAlign=top;spacingLeft=4;spacingRight=4;overflow=hidden;rotatable=0;points=[[0,0.5],[1,0.5]];portConstraint=eastwest;rounded=0;shadow=0;html=0;" parent="zkfFHV4jXpPFQw0GAbJ--6" vertex="1">
          <mxGeometry y="52" width="160" height="26" as="geometry" />
        </mxCell>
        <mxCell id="zkfFHV4jXpPFQw0GAbJ--9" value="" style="line;html=1;strokeWidth=1;align=left;verticalAlign=middle;spacingTop=-1;spacingLeft=3;spacingRight=3;rotatable=0;labelPosition=right;points=[];portConstraint=eastwest;" parent="zkfFHV4jXpPFQw0GAbJ--6" vertex="1">
          <mxGeometry y="78" width="160" height="8" as="geometry" />
        </mxCell>
        <mxCell id="zkfFHV4jXpPFQw0GAbJ--10" value="Is Eligible To Enroll" style="text;align=left;verticalAlign=top;spacingLeft=4;spacingRight=4;overflow=hidden;rotatable=0;points=[[0,0.5],[1,0.5]];portConstraint=eastwest;fontStyle=4" parent="zkfFHV4jXpPFQw0GAbJ--6" vertex="1">
          <mxGeometry y="86" width="160" height="26" as="geometry" />
        </mxCell>
        <mxCell id="zkfFHV4jXpPFQw0GAbJ--11" value="Get Seminars Taken" style="text;align=left;verticalAlign=top;spacingLeft=4;spacingRight=4;overflow=hidden;rotatable=0;points=[[0,0.5],[1,0.5]];portConstraint=eastwest;" parent="zkfFHV4jXpPFQw0GAbJ--6" vertex="1">
          <mxGeometry y="112" width="160" height="26" as="geometry" />
        </mxCell>
        <mxCell id="zkfFHV4jXpPFQw0GAbJ--12" value="" style="endArrow=block;endSize=10;endFill=0;shadow=0;strokeWidth=1;rounded=0;curved=0;edgeStyle=elbowEdgeStyle;elbow=vertical;" parent="WIyWlLk6GJQsqaUBKTNV-1" source="zkfFHV4jXpPFQw0GAbJ--6" target="zkfFHV4jXpPFQw0GAbJ--0" edge="1">
          <mxGeometry width="160" relative="1" as="geometry">
            <mxPoint x="200" y="203" as="sourcePoint" />
            <mxPoint x="200" y="203" as="targetPoint" />
          </mxGeometry>
        </mxCell>
        <mxCell id="zkfFHV4jXpPFQw0GAbJ--13" value="Professor" style="swimlane;fontStyle=0;align=center;verticalAlign=top;childLayout=stackLayout;horizontal=1;startSize=26;horizontalStack=0;resizeParent=1;resizeLast=0;collapsible=1;marginBottom=0;rounded=0;shadow=0;strokeWidth=1;" parent="WIyWlLk6GJQsqaUBKTNV-1" vertex="1">
          <mxGeometry x="330" y="360" width="160" height="70" as="geometry">
            <mxRectangle x="340" y="380" width="170" height="26" as="alternateBounds" />
          </mxGeometry>
        </mxCell>
        <mxCell id="zkfFHV4jXpPFQw0GAbJ--14" value="Salary" style="text;align=left;verticalAlign=top;spacingLeft=4;spacingRight=4;overflow=hidden;rotatable=0;points=[[0,0.5],[1,0.5]];portConstraint=eastwest;" parent="zkfFHV4jXpPFQw0GAbJ--13" vertex="1">
          <mxGeometry y="26" width="160" height="26" as="geometry" />
        </mxCell>
        <mxCell id="zkfFHV4jXpPFQw0GAbJ--15" value="" style="line;html=1;strokeWidth=1;align=left;verticalAlign=middle;spacingTop=-1;spacingLeft=3;spacingRight=3;rotatable=0;labelPosition=right;points=[];portConstraint=eastwest;" parent="zkfFHV4jXpPFQw0GAbJ--13" vertex="1">
          <mxGeometry y="52" width="160" height="8" as="geometry" />
        </mxCell>
        <mxCell id="zkfFHV4jXpPFQw0GAbJ--16" value="" style="endArrow=block;endSize=10;endFill=0;shadow=0;strokeWidth=1;rounded=0;curved=0;edgeStyle=elbowEdgeStyle;elbow=vertical;" parent="WIyWlLk6GJQsqaUBKTNV-1" source="zkfFHV4jXpPFQw0GAbJ--13" target="zkfFHV4jXpPFQw0GAbJ--0" edge="1">
          <mxGeometry width="160" relative="1" as="geometry">
            <mxPoint x="210" y="373" as="sourcePoint" />
            <mxPoint x="310" y="271" as="targetPoint" />
          </mxGeometry>
        </mxCell>
        <mxCell id="zkfFHV4jXpPFQw0GAbJ--17" value="Address" style="swimlane;fontStyle=0;align=center;verticalAlign=top;childLayout=stackLayout;horizontal=1;startSize=26;horizontalStack=0;resizeParent=1;resizeLast=0;collapsible=1;marginBottom=0;rounded=0;shadow=0;strokeWidth=1;" parent="WIyWlLk6GJQsqaUBKTNV-1" vertex="1">
          <mxGeometry x="508" y="120" width="160" height="216" as="geometry">
            <mxRectangle x="550" y="140" width="160" height="26" as="alternateBounds" />
          </mxGeometry>
        </mxCell>
        <mxCell id="zkfFHV4jXpPFQw0GAbJ--18" value="Street" style="text;align=left;verticalAlign=top;spacingLeft=4;spacingRight=4;overflow=hidden;rotatable=0;points=[[0,0.5],[1,0.5]];portConstraint=eastwest;" parent="zkfFHV4jXpPFQw0GAbJ--17" vertex="1">
          <mxGeometry y="26" width="160" height="26" as="geometry" />
        </mxCell>
        <mxCell id="zkfFHV4jXpPFQw0GAbJ--19" value="City" style="text;align=left;verticalAlign=top;spacingLeft=4;spacingRight=4;overflow=hidden;rotatable=0;points=[[0,0.5],[1,0.5]];portConstraint=eastwest;rounded=0;shadow=0;html=0;" parent="zkfFHV4jXpPFQw0GAbJ--17" vertex="1">
          <mxGeometry y="52" width="160" height="26" as="geometry" />
        </mxCell>
        <mxCell id="zkfFHV4jXpPFQw0GAbJ--20" value="State" style="text;align=left;verticalAlign=top;spacingLeft=4;spacingRight=4;overflow=hidden;rotatable=0;points=[[0,0.5],[1,0.5]];portConstraint=eastwest;rounded=0;shadow=0;html=0;" parent="zkfFHV4jXpPFQw0GAbJ--17" vertex="1">
          <mxGeometry y="78" width="160" height="26" as="geometry" />
        </mxCell>
        <mxCell id="zkfFHV4jXpPFQw0GAbJ--21" value="Postal Code" style="text;align=left;verticalAlign=top;spacingLeft=4;spacingRight=4;overflow=hidden;rotatable=0;points=[[0,0.5],[1,0.5]];portConstraint=eastwest;rounded=0;shadow=0;html=0;" parent="zkfFHV4jXpPFQw0GAbJ--17" vertex="1">
          <mxGeometry y="104" width="160" height="26" as="geometry" />
        </mxCell>
        <mxCell id="zkfFHV4jXpPFQw0GAbJ--22" value="Country" style="text;align=left;verticalAlign=top;spacingLeft=4;spacingRight=4;overflow=hidden;rotatable=0;points=[[0,0.5],[1,0.5]];portConstraint=eastwest;rounded=0;shadow=0;html=0;" parent="zkfFHV4jXpPFQw0GAbJ--17" vertex="1">
          <mxGeometry y="130" width="160" height="26" as="geometry" />
        </mxCell>
        <mxCell id="zkfFHV4jXpPFQw0GAbJ--23" value="" style="line;html=1;strokeWidth=1;align=left;verticalAlign=middle;spacingTop=-1;spacingLeft=3;spacingRight=3;rotatable=0;labelPosition=right;points=[];portConstraint=eastwest;" parent="zkfFHV4jXpPFQw0GAbJ--17" vertex="1">
          <mxGeometry y="156" width="160" height="8" as="geometry" />
        </mxCell>
        <mxCell id="zkfFHV4jXpPFQw0GAbJ--24" value="Validate" style="text;align=left;verticalAlign=top;spacingLeft=4;spacingRight=4;overflow=hidden;rotatable=0;points=[[0,0.5],[1,0.5]];portConstraint=eastwest;" parent="zkfFHV4jXpPFQw0GAbJ--17" vertex="1">
          <mxGeometry y="164" width="160" height="26" as="geometry" />
        </mxCell>
        <mxCell id="zkfFHV4jXpPFQw0GAbJ--25" value="Output As Label" style="text;align=left;verticalAlign=top;spacingLeft=4;spacingRight=4;overflow=hidden;rotatable=0;points=[[0,0.5],[1,0.5]];portConstraint=eastwest;" parent="zkfFHV4jXpPFQw0GAbJ--17" vertex="1">
          <mxGeometry y="190" width="160" height="26" as="geometry" />
        </mxCell>
        <mxCell id="zkfFHV4jXpPFQw0GAbJ--26" value="" style="endArrow=open;shadow=0;strokeWidth=1;rounded=0;curved=0;endFill=1;edgeStyle=elbowEdgeStyle;elbow=vertical;" parent="WIyWlLk6GJQsqaUBKTNV-1" source="zkfFHV4jXpPFQw0GAbJ--0" target="zkfFHV4jXpPFQw0GAbJ--17" edge="1">
          <mxGeometry x="0.5" y="41" relative="1" as="geometry">
            <mxPoint x="380" y="192" as="sourcePoint" />
            <mxPoint x="540" y="192" as="targetPoint" />
            <mxPoint x="-40" y="32" as="offset" />
          </mxGeometry>
        </mxCell>
        <mxCell id="zkfFHV4jXpPFQw0GAbJ--27" value="0..1" style="resizable=0;align=left;verticalAlign=bottom;labelBackgroundColor=none;fontSize=12;" parent="zkfFHV4jXpPFQw0GAbJ--26" connectable="0" vertex="1">
          <mxGeometry x="-1" relative="1" as="geometry">
            <mxPoint y="4" as="offset" />
          </mxGeometry>
        </mxCell>
        <mxCell id="zkfFHV4jXpPFQw0GAbJ--28" value="1" style="resizable=0;align=right;verticalAlign=bottom;labelBackgroundColor=none;fontSize=12;" parent="zkfFHV4jXpPFQw0GAbJ--26" connectable="0" vertex="1">
          <mxGeometry x="1" relative="1" as="geometry">
            <mxPoint x="-7" y="4" as="offset" />
          </mxGeometry>
        </mxCell>
        <mxCell id="zkfFHV4jXpPFQw0GAbJ--29" value="lives at" style="text;html=1;resizable=0;points=[];;align=center;verticalAlign=middle;labelBackgroundColor=none;rounded=0;shadow=0;strokeWidth=1;fontSize=12;" parent="zkfFHV4jXpPFQw0GAbJ--26" vertex="1" connectable="0">
          <mxGeometry x="0.5" y="49" relative="1" as="geometry">
            <mxPoint x="-38" y="40" as="offset" />
          </mxGeometry>
        </mxCell>
        <mxCell id="bFcmJnM0t0RErwP7pEkt-9" value="" style="group" vertex="1" connectable="0" parent="WIyWlLk6GJQsqaUBKTNV-1">
          <mxGeometry x="1070" y="40" width="530" height="350" as="geometry" />
        </mxCell>
        <mxCell id="bFcmJnM0t0RErwP7pEkt-10" value="" style="rounded=0;whiteSpace=wrap;html=1;container=0;dashed=1;" vertex="1" parent="bFcmJnM0t0RErwP7pEkt-9">
          <mxGeometry y="8.3375" width="530" height="341.66249999999997" as="geometry" />
        </mxCell>
        <mxCell id="bFcmJnM0t0RErwP7pEkt-11" value="" style="group" vertex="1" connectable="0" parent="bFcmJnM0t0RErwP7pEkt-9">
          <mxGeometry x="12.045454545454563" width="80.30303030303031" height="16.666666666666682" as="geometry" />
        </mxCell>
        <mxCell id="bFcmJnM0t0RErwP7pEkt-12" value="" style="rounded=0;whiteSpace=wrap;html=1;shape=none;container=0;" vertex="1" parent="bFcmJnM0t0RErwP7pEkt-11">
          <mxGeometry width="80.3030303030303" height="16.666666666666664" as="geometry" />
        </mxCell>
        <mxCell id="bFcmJnM0t0RErwP7pEkt-13" value="&lt;font style=&quot;font-size: 10px;&quot;&gt;Redux&lt;/font&gt;" style="text;html=1;align=left;verticalAlign=middle;whiteSpace=wrap;rounded=0;container=0;" vertex="1" parent="bFcmJnM0t0RErwP7pEkt-11">
          <mxGeometry y="2.0846153846153848" width="78.51851851851852" height="12.5" as="geometry" />
        </mxCell>
        <mxCell id="bFcmJnM0t0RErwP7pEkt-0" value="isDark" style="swimlane;fontStyle=0;align=center;verticalAlign=top;childLayout=stackLayout;horizontal=1;startSize=26;horizontalStack=0;resizeParent=1;resizeLast=0;collapsible=1;marginBottom=0;rounded=0;shadow=0;strokeWidth=1;" vertex="1" parent="bFcmJnM0t0RErwP7pEkt-9">
          <mxGeometry x="50.48" y="40" width="201.9" height="110" as="geometry">
            <mxRectangle x="550" y="140" width="160" height="26" as="alternateBounds" />
          </mxGeometry>
        </mxCell>
        <mxCell id="bFcmJnM0t0RErwP7pEkt-1" value="isDark" style="text;align=left;verticalAlign=top;spacingLeft=4;spacingRight=4;overflow=hidden;rotatable=0;points=[[0,0.5],[1,0.5]];portConstraint=eastwest;" vertex="1" parent="bFcmJnM0t0RErwP7pEkt-0">
          <mxGeometry y="26" width="201.9" height="32.5" as="geometry" />
        </mxCell>
        <mxCell id="bFcmJnM0t0RErwP7pEkt-6" value="" style="line;html=1;strokeWidth=1;align=left;verticalAlign=middle;spacingTop=-1;spacingLeft=3;spacingRight=3;rotatable=0;labelPosition=right;points=[];portConstraint=eastwest;" vertex="1" parent="bFcmJnM0t0RErwP7pEkt-0">
          <mxGeometry y="58.5" width="201.9" height="10" as="geometry" />
        </mxCell>
        <mxCell id="bFcmJnM0t0RErwP7pEkt-7" value="toggle" style="text;align=left;verticalAlign=top;spacingLeft=4;spacingRight=4;overflow=hidden;rotatable=0;points=[[0,0.5],[1,0.5]];portConstraint=eastwest;" vertex="1" parent="bFcmJnM0t0RErwP7pEkt-0">
          <mxGeometry y="68.5" width="201.9" height="32.5" as="geometry" />
        </mxCell>
        <mxCell id="bFcmJnM0t0RErwP7pEkt-15" value="counter" style="swimlane;fontStyle=0;align=center;verticalAlign=top;childLayout=stackLayout;horizontal=1;startSize=26;horizontalStack=0;resizeParent=1;resizeLast=0;collapsible=1;marginBottom=0;rounded=0;shadow=0;strokeWidth=1;" vertex="1" parent="bFcmJnM0t0RErwP7pEkt-9">
          <mxGeometry x="280" y="40" width="201.9" height="166" as="geometry">
            <mxRectangle x="550" y="140" width="160" height="26" as="alternateBounds" />
          </mxGeometry>
        </mxCell>
        <mxCell id="bFcmJnM0t0RErwP7pEkt-16" value="count" style="text;align=left;verticalAlign=top;spacingLeft=4;spacingRight=4;overflow=hidden;rotatable=0;points=[[0,0.5],[1,0.5]];portConstraint=eastwest;" vertex="1" parent="bFcmJnM0t0RErwP7pEkt-15">
          <mxGeometry y="26" width="201.9" height="32.5" as="geometry" />
        </mxCell>
        <mxCell id="bFcmJnM0t0RErwP7pEkt-17" value="" style="line;html=1;strokeWidth=1;align=left;verticalAlign=middle;spacingTop=-1;spacingLeft=3;spacingRight=3;rotatable=0;labelPosition=right;points=[];portConstraint=eastwest;" vertex="1" parent="bFcmJnM0t0RErwP7pEkt-15">
          <mxGeometry y="58.5" width="201.9" height="10" as="geometry" />
        </mxCell>
        <mxCell id="bFcmJnM0t0RErwP7pEkt-18" value="add" style="text;align=left;verticalAlign=top;spacingLeft=4;spacingRight=4;overflow=hidden;rotatable=0;points=[[0,0.5],[1,0.5]];portConstraint=eastwest;" vertex="1" parent="bFcmJnM0t0RErwP7pEkt-15">
          <mxGeometry y="68.5" width="201.9" height="32.5" as="geometry" />
        </mxCell>
        <mxCell id="bFcmJnM0t0RErwP7pEkt-19" value="reduce" style="text;align=left;verticalAlign=top;spacingLeft=4;spacingRight=4;overflow=hidden;rotatable=0;points=[[0,0.5],[1,0.5]];portConstraint=eastwest;" vertex="1" parent="bFcmJnM0t0RErwP7pEkt-15">
          <mxGeometry y="101" width="201.9" height="32.5" as="geometry" />
        </mxCell>
        <mxCell id="bFcmJnM0t0RErwP7pEkt-20" value="set" style="text;align=left;verticalAlign=top;spacingLeft=4;spacingRight=4;overflow=hidden;rotatable=0;points=[[0,0.5],[1,0.5]];portConstraint=eastwest;" vertex="1" parent="bFcmJnM0t0RErwP7pEkt-15">
          <mxGeometry y="133.5" width="201.9" height="32.5" as="geometry" />
        </mxCell>
        <mxCell id="bFcmJnM0t0RErwP7pEkt-30" value="" style="group" vertex="1" connectable="0" parent="WIyWlLk6GJQsqaUBKTNV-1">
          <mxGeometry x="1070" y="410" width="530" height="350" as="geometry" />
        </mxCell>
        <mxCell id="bFcmJnM0t0RErwP7pEkt-31" value="" style="rounded=0;whiteSpace=wrap;html=1;container=0;dashed=1;" vertex="1" parent="bFcmJnM0t0RErwP7pEkt-30">
          <mxGeometry y="8.3375" width="530" height="341.66249999999997" as="geometry" />
        </mxCell>
        <mxCell id="bFcmJnM0t0RErwP7pEkt-32" value="" style="group" vertex="1" connectable="0" parent="bFcmJnM0t0RErwP7pEkt-30">
          <mxGeometry x="12.045454545454563" width="80.30303030303031" height="16.666666666666682" as="geometry" />
        </mxCell>
        <mxCell id="bFcmJnM0t0RErwP7pEkt-33" value="" style="rounded=0;whiteSpace=wrap;html=1;shape=none;container=0;" vertex="1" parent="bFcmJnM0t0RErwP7pEkt-32">
          <mxGeometry width="80.3030303030303" height="16.666666666666664" as="geometry" />
        </mxCell>
        <mxCell id="bFcmJnM0t0RErwP7pEkt-34" value="&lt;font style=&quot;font-size: 10px;&quot;&gt;Data&lt;/font&gt;" style="text;html=1;align=left;verticalAlign=middle;whiteSpace=wrap;rounded=0;container=0;" vertex="1" parent="bFcmJnM0t0RErwP7pEkt-32">
          <mxGeometry y="2.0846153846153848" width="78.51851851851852" height="12.5" as="geometry" />
        </mxCell>
        <mxCell id="bFcmJnM0t0RErwP7pEkt-21" value="Course" style="swimlane;fontStyle=0;align=center;verticalAlign=top;childLayout=stackLayout;horizontal=1;startSize=26;horizontalStack=0;resizeParent=1;resizeLast=0;collapsible=1;marginBottom=0;rounded=0;shadow=0;strokeWidth=1;" vertex="1" parent="bFcmJnM0t0RErwP7pEkt-30">
          <mxGeometry x="40" y="40" width="160" height="216" as="geometry">
            <mxRectangle x="550" y="140" width="160" height="26" as="alternateBounds" />
          </mxGeometry>
        </mxCell>
        <mxCell id="bFcmJnM0t0RErwP7pEkt-22" value="name" style="text;align=left;verticalAlign=top;spacingLeft=4;spacingRight=4;overflow=hidden;rotatable=0;points=[[0,0.5],[1,0.5]];portConstraint=eastwest;" vertex="1" parent="bFcmJnM0t0RErwP7pEkt-21">
          <mxGeometry y="26" width="160" height="26" as="geometry" />
        </mxCell>
        <mxCell id="bFcmJnM0t0RErwP7pEkt-27" value="" style="line;html=1;strokeWidth=1;align=left;verticalAlign=middle;spacingTop=-1;spacingLeft=3;spacingRight=3;rotatable=0;labelPosition=right;points=[];portConstraint=eastwest;" vertex="1" parent="bFcmJnM0t0RErwP7pEkt-21">
          <mxGeometry y="52" width="160" height="8" as="geometry" />
        </mxCell>
        <mxCell id="bFcmJnM0t0RErwP7pEkt-29" value="placeholder" style="text;align=left;verticalAlign=top;spacingLeft=4;spacingRight=4;overflow=hidden;rotatable=0;points=[[0,0.5],[1,0.5]];portConstraint=eastwest;" vertex="1" parent="bFcmJnM0t0RErwP7pEkt-21">
          <mxGeometry y="60" width="160" height="26" as="geometry" />
        </mxCell>
        <mxCell id="bFcmJnM0t0RErwP7pEkt-45" value="" style="group" vertex="1" connectable="0" parent="WIyWlLk6GJQsqaUBKTNV-1">
          <mxGeometry x="1654" y="40" width="890" height="720" as="geometry" />
        </mxCell>
        <mxCell id="bFcmJnM0t0RErwP7pEkt-46" value="" style="rounded=0;whiteSpace=wrap;html=1;container=0;dashed=1;" vertex="1" parent="bFcmJnM0t0RErwP7pEkt-45">
          <mxGeometry y="8.34" width="890" height="711.66" as="geometry" />
        </mxCell>
        <mxCell id="bFcmJnM0t0RErwP7pEkt-47" value="" style="group" vertex="1" connectable="0" parent="bFcmJnM0t0RErwP7pEkt-45">
          <mxGeometry x="344" y="-10" width="140" height="40" as="geometry" />
        </mxCell>
        <mxCell id="bFcmJnM0t0RErwP7pEkt-48" value="" style="rounded=0;whiteSpace=wrap;html=1;shape=none;container=0;" vertex="1" parent="bFcmJnM0t0RErwP7pEkt-47">
          <mxGeometry width="139.99999999999997" height="39.99999999999996" as="geometry" />
        </mxCell>
        <mxCell id="bFcmJnM0t0RErwP7pEkt-49" value="&lt;font style=&quot;font-size: 18px;&quot;&gt;Framework&lt;/font&gt;" style="text;html=1;align=center;verticalAlign=middle;whiteSpace=wrap;rounded=0;container=0;" vertex="1" parent="bFcmJnM0t0RErwP7pEkt-47">
          <mxGeometry y="5.003076923076919" width="136.88888888888886" height="29.99999999999997" as="geometry" />
        </mxCell>
        <mxCell id="bFcmJnM0t0RErwP7pEkt-62" value="&lt;b&gt;Redux&lt;/b&gt;" style="rounded=0;whiteSpace=wrap;html=1;" vertex="1" parent="bFcmJnM0t0RErwP7pEkt-45">
          <mxGeometry x="46" y="74" width="120" height="60" as="geometry" />
        </mxCell>
        <mxCell id="bFcmJnM0t0RErwP7pEkt-71" value="" style="group" vertex="1" connectable="0" parent="bFcmJnM0t0RErwP7pEkt-45">
          <mxGeometry x="346" y="50" width="520" height="410" as="geometry" />
        </mxCell>
        <mxCell id="bFcmJnM0t0RErwP7pEkt-72" value="" style="rounded=0;whiteSpace=wrap;html=1;container=0;dashed=1;" vertex="1" parent="bFcmJnM0t0RErwP7pEkt-71">
          <mxGeometry y="6.67" width="520" height="403.33" as="geometry" />
        </mxCell>
        <mxCell id="bFcmJnM0t0RErwP7pEkt-73" value="" style="group" vertex="1" connectable="0" parent="bFcmJnM0t0RErwP7pEkt-71">
          <mxGeometry x="9.54545454545456" width="63.63636363636364" height="13.333333333333346" as="geometry" />
        </mxCell>
        <mxCell id="bFcmJnM0t0RErwP7pEkt-74" value="" style="rounded=0;whiteSpace=wrap;html=1;shape=none;container=0;" vertex="1" parent="bFcmJnM0t0RErwP7pEkt-73">
          <mxGeometry width="63.63636363636363" height="13.333333333333332" as="geometry" />
        </mxCell>
        <mxCell id="bFcmJnM0t0RErwP7pEkt-75" value="&lt;font style=&quot;font-size: 10px;&quot;&gt;Pages&lt;/font&gt;" style="text;html=1;align=left;verticalAlign=middle;whiteSpace=wrap;rounded=0;container=0;" vertex="1" parent="bFcmJnM0t0RErwP7pEkt-73">
          <mxGeometry y="1.6676923076923078" width="62.22222222222222" height="10" as="geometry" />
        </mxCell>
        <mxCell id="bFcmJnM0t0RErwP7pEkt-64" value="&lt;b&gt;Bookmarks&lt;/b&gt;" style="rhombus;whiteSpace=wrap;html=1;" vertex="1" parent="bFcmJnM0t0RErwP7pEkt-71">
          <mxGeometry x="30" y="25" width="80" height="80" as="geometry" />
        </mxCell>
        <mxCell id="bFcmJnM0t0RErwP7pEkt-65" value="&lt;b&gt;Explore&lt;/b&gt;" style="rhombus;whiteSpace=wrap;html=1;" vertex="1" parent="bFcmJnM0t0RErwP7pEkt-71">
          <mxGeometry x="121" y="25" width="80" height="80" as="geometry" />
        </mxCell>
        <mxCell id="bFcmJnM0t0RErwP7pEkt-95" style="edgeStyle=orthogonalEdgeStyle;rounded=0;orthogonalLoop=1;jettySize=auto;html=1;entryX=0.5;entryY=0;entryDx=0;entryDy=0;" edge="1" parent="bFcmJnM0t0RErwP7pEkt-71" source="bFcmJnM0t0RErwP7pEkt-66" target="bFcmJnM0t0RErwP7pEkt-63">
          <mxGeometry relative="1" as="geometry" />
        </mxCell>
        <mxCell id="bFcmJnM0t0RErwP7pEkt-66" value="&lt;b&gt;Home&lt;/b&gt;" style="rhombus;whiteSpace=wrap;html=1;" vertex="1" parent="bFcmJnM0t0RErwP7pEkt-71">
          <mxGeometry x="221" y="25" width="80" height="80" as="geometry" />
        </mxCell>
        <mxCell id="bFcmJnM0t0RErwP7pEkt-117" style="edgeStyle=orthogonalEdgeStyle;rounded=0;orthogonalLoop=1;jettySize=auto;html=1;" edge="1" parent="bFcmJnM0t0RErwP7pEkt-71" source="bFcmJnM0t0RErwP7pEkt-63" target="bFcmJnM0t0RErwP7pEkt-116">
          <mxGeometry relative="1" as="geometry" />
        </mxCell>
        <mxCell id="bFcmJnM0t0RErwP7pEkt-63" value="&lt;b&gt;Navs&lt;/b&gt;" style="rounded=0;whiteSpace=wrap;html=1;" vertex="1" parent="bFcmJnM0t0RErwP7pEkt-71">
          <mxGeometry x="101" y="165" width="120" height="60" as="geometry" />
        </mxCell>
        <mxCell id="bFcmJnM0t0RErwP7pEkt-118" style="edgeStyle=orthogonalEdgeStyle;rounded=0;orthogonalLoop=1;jettySize=auto;html=1;entryX=0.5;entryY=0;entryDx=0;entryDy=0;" edge="1" parent="bFcmJnM0t0RErwP7pEkt-71">
          <mxGeometry relative="1" as="geometry">
            <mxPoint x="410" y="220" as="sourcePoint" />
            <mxPoint x="281" y="300" as="targetPoint" />
            <Array as="points">
              <mxPoint x="410" y="265" />
              <mxPoint x="281" y="265" />
            </Array>
          </mxGeometry>
        </mxCell>
        <mxCell id="bFcmJnM0t0RErwP7pEkt-70" value="&lt;b&gt;Settings&lt;/b&gt;" style="rounded=0;whiteSpace=wrap;html=1;" vertex="1" parent="bFcmJnM0t0RErwP7pEkt-71">
          <mxGeometry x="350" y="165" width="120" height="60" as="geometry" />
        </mxCell>
        <mxCell id="bFcmJnM0t0RErwP7pEkt-67" style="edgeStyle=orthogonalEdgeStyle;rounded=0;orthogonalLoop=1;jettySize=auto;html=1;" edge="1" parent="bFcmJnM0t0RErwP7pEkt-71" source="bFcmJnM0t0RErwP7pEkt-64" target="bFcmJnM0t0RErwP7pEkt-63">
          <mxGeometry relative="1" as="geometry" />
        </mxCell>
        <mxCell id="bFcmJnM0t0RErwP7pEkt-68" style="edgeStyle=orthogonalEdgeStyle;rounded=0;orthogonalLoop=1;jettySize=auto;html=1;entryX=0.5;entryY=0;entryDx=0;entryDy=0;" edge="1" parent="bFcmJnM0t0RErwP7pEkt-71" source="bFcmJnM0t0RErwP7pEkt-65" target="bFcmJnM0t0RErwP7pEkt-63">
          <mxGeometry relative="1" as="geometry" />
        </mxCell>
        <mxCell id="bFcmJnM0t0RErwP7pEkt-116" value="App" style="rounded=0;whiteSpace=wrap;html=1;" vertex="1" parent="bFcmJnM0t0RErwP7pEkt-71">
          <mxGeometry x="221" y="305" width="120" height="60" as="geometry" />
        </mxCell>
      </root>
    </mxGraphModel>
  </diagram>
</mxfile>
